<?xml version="1.0" encoding="UTF-8"?>
<svg id="Layer_2" data-name="Layer 2" xmlns="http://www.w3.org/2000/svg" viewBox="0 0 174.52 164.68">
  <defs>
    <style>
      .cls-1 {
        fill: #000;
        stroke-width: 0px;
      }

      .cls-2 {
        fill: #ffbfcd;
        stroke: #000;
        stroke-miterlimit: 10;
      }
    </style>
  </defs>
  <g id="Layer_1-2" data-name="Layer 1">
    <g>
      <rect class="cls-2" x=".5" y=".5" width="173.52" height="163.68"/>
      <g>
        <g id="Shape_46" data-name="Shape 46">
          <path class="cls-1" d="M86.39,36.87c-.12.02-.17-.15-.18-.27-.02-.44-.04-.9.12-1.32.18-.45.56-.9.39-1.35-.32-.85-.57-1.72-.76-2.6-.08-.4-.09-.92.28-1.1.26.18.22.56.22.87,0,1.14.92,2.18.77,3.31-.03.22-.1.44-.17.65l-.53,1.63c-.03.08-.07.17-.15.18Z"/>
          <path class="cls-1" d="M80.59,57.07c.78,1.09,1.31,2.43,1.21,3.77,0,.11-.02.23-.09.32-.07.09-.2.14-.29.07-.12-.08-.09-.26-.06-.39.13-.69-.2-1.37-.52-1.99-.49-.95-1.06-1.97-2.05-2.36-.12-.05-.26-.09-.36-.17-.1-.09-.16-.24-.1-.36.08-.14.28-.15.44-.13.48.08.94.3,1.3.63.2.18.37.4.53.62Z"/>
          <path class="cls-1" d="M33.99,56.52c.06.28.16.55.29.8.06.11.13.23.15.36.02.13-.02.28-.13.34-.11.06-.26.02-.36-.08-.09-.09-.14-.22-.19-.34-.34-.9-.64-1.81-.9-2.73-.06-.88.04-1.77.29-2.62.04-.14.09-.29.22-.36.12-.07.33,0,.33.14-.01.53-.28,1.02-.32,1.55-.03.41.08.81.18,1.2.13.48.25.95.38,1.43.03.1.05.2.08.3Z"/>
          <path class="cls-1" d="M58.5,72.42c-.16-.15-.07-.42.06-.59.13-.17.3-.32.49-.43.15-.09.32-.16.48-.24.87-.45,1.44-1.35,2.31-1.78.06-.03.13-.06.19-.04.09.03.13.14.11.23-.02.09-.08.17-.14.24-.21.25-.43.5-.64.75-.48.56-.97,1.12-1.59,1.51-.24.15-.5.27-.76.37-.17.06-.38.11-.51-.02Z"/>
          <path class="cls-1" d="M42.09,69.89c.34.05.66.22.96.39.05.03.1.05.12.1.02.05,0,.12-.05.13.28-.03.5.22.7.41.24.22.52.38.8.53.46.26.92.52,1.38.78.13.07.13.29.02.4s-.27.13-.43.12-.3-.06-.45-.06c-.28,0-.52-.16-.75-.31-.21-.14-.42-.27-.62-.42-.7-.51-1.3-1.14-1.89-1.77-.04-.04-.08-.09-.08-.15,0-.12.17-.16.29-.14Z"/>
          <path class="cls-1" d="M46.01,36.24c-4.46-.94-8.81-2.47-12.88-4.52-.21-.18-.41.22-.39.49.18,2.66.52,5.31.85,7.95.07.55.14,1.1.32,1.63.25.72.69,1.35,1.07,2,.88,1.49,1.49,3.13,1.78,4.83-1.73-.7-3.29-1.8-4.55-3.18-.21-.23-.58-.04-.83.15-1.47,1.16-2.93,2.32-4.4,3.47-.38-.2-.29-.75-.14-1.15.34-.9.7-1.79,1.09-2.67.42-.94.86-1.89,1.04-2.9.15-.89.09-1.8.02-2.69-.19-2.73-.39-5.46-.58-8.19-4.85.86-9.07,3.93-13.89,4.98-.3-.35.06-.86.41-1.17,2.27-2.01,4.54-4.03,6.82-6.04.29-.26.2-.73.02-1.07-.18-.34-.45-.66-.45-1.05,0-.63.74-1.05,1.36-.94.62.1,1.12.54,1.59.97.89-.48,1.78-.97,2.67-1.45.44-.24.96-.62.87-1.12-.38-2.09-.22-4.28.45-6.3.31-.91.97-1.95,1.93-1.82.57.07.99.55,1.3,1.03,1.19,1.87,1.44,4.19,1.37,6.41-.02.54.39.98.78,1.36.58.57,1.17,1.15,1.75,1.72.23.23.48.46.79.56s.71-.01.83-.31c.23-.55.94-.83,1.48-.6.54.23.82.94.58,1.48-.27.62.34,1.24.87,1.65,2.35,1.83,4.41,4.02,6.08,6.48Z"/>
          <path class="cls-1" d="M81.38,43.32c.35-.6.77-1.17,1.25-1.67.15-.16.3-.31.47-.45.5-.41,1.12-.68,1.55-1.16.08-.09.17-.2.28-.25.12-.05.28-.01.32.11-.92,1.16-1.95,2.23-3.07,3.2-.16.14-.21.37-.32.56s-.4.31-.53.14c-.11-.13-.03-.32.06-.47Z"/>
          <path class="cls-1" d="M38.05,65.32c.03-.06.06-.12.09-.18.04.08.08.15.13.23-.03.03-.06.06-.09.09.12.17.31.26.5.34.19.08.38.17.51.33.13.16.15.43-.01.56-.18.15-.45.04-.65-.08-.4-.25-.76-.57-1.06-.94-.05-.06-.09-.12-.09-.19,0-.24-.28-.35-.44-.53-.15-.18-.18-.42-.29-.63-.08-.15-.2-.27-.3-.41-.1-.14-.18-.3-.16-.47s.17-.33.34-.31c.29.04.32.49.58.61l-.19.1c.14.07.27.14.39.24.16.13.28.31.34.51-.06-.01-.12-.03-.18-.04.19.26.38.52.59.77Z"/>
          <path class="cls-1" d="M67.9,54.84c-.09-.25-.08-.54-.03-.8.14-.63.54-1.16.93-1.67.11-.14.22-.29.35-.41.19-.17.42-.29.66-.35.1.01.2.04.27.11.07.07.1.19.03.27-.71.8-1.26,1.74-1.61,2.75-.06.18-.3.19-.48.17-.05,0-.12-.02-.13-.07Z"/>
          <path class="cls-1" d="M78.01,65.52c.1-.13.3-.09.47-.1.23-.01.44-.16.61-.31.55-.47,1.01-1.06,1.32-1.72.15-.32.32-.69.67-.75.22.35.07.81-.12,1.18-.28.53-.64,1.03-1.06,1.46-.42.43-.99.81-1.57.7-.11-.02-.22-.06-.29-.15-.07-.08-.09-.21-.03-.3Z"/>
          <path class="cls-1" d="M76.88,49.38c-.02-.07,0-.14,0-.21.12-.71.69-1.24,1.22-1.72.41-.37.82-.74,1.23-1.11.07-.07.16-.14.26-.14.2,0,.27.3.16.47s-.31.26-.47.39c-.14.12-.24.27-.35.42-.42.62-.88,1.21-1.37,1.78-.04.05-.05.11-.07.17-.05.12-.19.21-.33.2-.14-.01-.26-.12-.29-.25Z"/>
          <path class="cls-1" d="M51.39,75.79c-.21-.03-.43-.06-.63-.16-.17-.08-.32-.24-.3-.43.01-.19.28-.32.4-.18.07.09.21.09.31.06s.22-.08.33-.07c.98.06,1.97-.07,2.91-.39.07-.02.15-.05.22-.04s.15.08.14.15c0,.04-.02.07-.04.1-.18.28-.4.58-.72.62-.07,0-.16.01-.2.07-.04.07,0,.2-.08.22-.06.01-.09-.06-.11-.12s-.09-.12-.13-.07c-.16.17-.37.29-.6.34-.27.06-.54.02-.81-.02-.23-.03-.46-.06-.69-.09Z"/>
          <path class="cls-1" d="M72.7,58.8c-.04-.06-.05-.13-.06-.21-.05-.32-.09-.64-.14-.96-.01-.08-.02-.15-.02-.23,0-.34.17-.65.33-.95l.29-.51c.05-.09.12-.19.22-.2.2.01.36.23.32.42-.07.32-.14.65-.2.97-.07.36-.12.72-.15,1.09-.02.17-.03.36.02.52.04.11.1.22.08.33-.02.11-.21.17-.24.06-.06-.18-.34-.19-.45-.35Z"/>
          <path class="cls-1" d="M65.03,63.91c-.06.07-.15.1-.24.1-.25,0-.49-.19-.54-.44.12-.4.24-.8.35-1.2.04-.12.07-.24.14-.34.18-.25.32-.54.41-.84.03-.11.06-.23.15-.31.08-.08.24-.1.31-.01.05.06.04.14.03.22-.09.91-.27,1.81-.54,2.68-.02.05-.03.1-.07.14Z"/>
          <path class="cls-1" d="M34.41,57.33c.1,0,.1.19,0,.18,0-.06,0-.12,0-.18h0Z"/>
          <path class="cls-1" d="M66.11,76.27c.01.1-.14.1-.23.07-.11-.04-.22-.08-.33-.12.13-.04.28-.06.42-.05.06,0,.14.03.14.09Z"/>
          <path class="cls-1" d="M36.84,48.63s.09.03.06.06c-.03.03-.1-.03-.06-.06h0Z"/>
          <path class="cls-1" d="M46,36.24s.09.03.06.06-.1-.03-.06-.06h0Z"/>
          <path class="cls-1" d="M37.78,64.78s-.04-.07,0-.08c.04,0,.04.08,0,.08h0Z"/>
          <path class="cls-1" d="M76.51,20.15c0-.09.14-.09.23-.05.21.1.42.22.62.34.33.21.64.45.94.7,1.02.82,2.02,1.66,3,2.52-.03.13-.23.09-.35.02-.95-.6-1.82-1.31-2.68-2.03-.57-.47-1.13-.94-1.7-1.4-.03-.03-.07-.06-.07-.1Z"/>
          <path class="cls-1" d="M34.33,57.33s.05-.1.08-.06c.03.04-.05.1-.08.06h0Z"/>
          <path class="cls-1" d="M75.57,63.57c.08.04.18.08.21.17.03.09-.09.2-.15.13-.1-.11-.26-.17-.41-.16-.54.03-1.03-.29-1.48-.6-.15-.1-.31-.24-.29-.42.01-.12-.07-.23-.13-.34-.06-.11-.09-.26,0-.34.07-.06.17-.04.25,0,.07.05.12.12.18.19.26.34.62.58.97.82.28.19.55.38.86.52Z"/>
          <path class="cls-1" d="M82.53,25.22c-.02.12.11.21.21.28.37.24.64.61.89.97.49.68.97,1.36,1.46,2.04.06.08-.02.2-.12.22-.1.01-.19-.04-.27-.1-.35-.26-.6-.61-.85-.97-.33-.47-.66-.94-.99-1.41-.18-.25-.36-.51-.48-.79-.08-.18-.14-.38-.3-.5.17-.14.48.03.44.25Z"/>
          <path class="cls-1" d="M77.26,52.26c.09.05.19.12.23.22.04.1-.01.24-.12.25-.37-.29-.8-.51-1.25-.64-.24-.07-.48-.11-.73-.17-.32-.07-.64-.17-.96-.26-.29-.09-.59-.18-.81-.38.15-.16.41-.11.62-.05.54.15,1.07.3,1.61.45.12.03.24.07.35.1.37.12.72.27,1.05.47Z"/>
        </g>
        <g id="Shape_46-2" data-name="Shape 46">
          <path class="cls-1" d="M133.21,56.68c-.03-.07.06-.13.13-.15.26-.09.52-.18.79-.16.29.03.62.17.86,0,.44-.33.91-.63,1.39-.89.22-.12.53-.21.69-.03-.06.18-.29.22-.47.28-.67.2-1.12.92-1.81,1.03-.14.02-.27.02-.41.01l-1.05-.03c-.05,0-.11,0-.13-.06Z"/>
          <path class="cls-1" d="M120.36,56.78c-.51.65-1.2,1.19-2,1.36-.07.01-.14.03-.2,0-.06-.02-.12-.09-.09-.16.03-.08.13-.09.22-.1.43-.04.77-.36,1.08-.65.47-.45.97-.96,1.03-1.61,0-.08,0-.16.04-.24.03-.07.11-.14.19-.12.1.02.14.14.15.24.04.3-.01.6-.14.87-.07.15-.17.29-.27.42Z"/>
          <path class="cls-1" d="M112.62,29.37c-.15.08-.29.19-.42.31-.06.05-.11.11-.18.15-.07.03-.17.04-.22-.02-.06-.06-.06-.15-.02-.22.04-.07.1-.12.17-.17.47-.36.95-.69,1.44-1,.51-.19,1.04-.28,1.58-.28.09,0,.18,0,.25.06.06.06.06.19-.02.22-.31.09-.65.02-.96.08-.24.05-.46.18-.67.31-.26.16-.51.31-.77.47-.05.03-.11.07-.17.1Z"/>
          <path class="cls-1" d="M107.54,46.49c.06-.12.23-.11.36-.07.13.05.24.12.34.21.08.07.15.16.22.24.41.43,1.04.61,1.44,1.05.03.03.06.06.06.1,0,.06-.06.1-.12.11-.06,0-.11-.02-.16-.04-.18-.08-.37-.16-.55-.25-.41-.18-.83-.37-1.16-.67-.13-.11-.24-.24-.35-.38-.07-.09-.13-.2-.08-.3Z"/>
          <path class="cls-1" d="M106.18,36.43c.03.21-.01.42-.06.63,0,.03-.01.07-.04.09-.02.02-.07.02-.08,0,.06.16-.04.33-.12.48-.09.18-.13.37-.17.56-.07.31-.14.63-.22.94-.02.09-.15.13-.23.08s-.13-.14-.14-.23-.02-.19-.04-.28c-.04-.16,0-.33.05-.5.04-.15.09-.29.14-.44.18-.5.44-.96.71-1.41.02-.03.04-.06.07-.07.07-.02.12.07.13.14Z"/>
          <path class="cls-1" d="M126.58,32.91c-.22-2.78-.08-5.59.42-8.33.07-.15-.2-.2-.36-.15-1.53.57-3.02,1.22-4.51,1.87-.31.14-.62.27-.9.47-.38.27-.67.64-.99.98-.72.77-1.58,1.41-2.52,1.88.11-1.13.48-2.24,1.07-3.22.1-.16-.08-.35-.23-.46-.93-.66-1.87-1.32-2.8-1.98.05-.25.39-.3.65-.28.59.04,1.17.1,1.75.17.62.08,1.25.18,1.88.11.55-.06,1.07-.26,1.58-.45,1.57-.59,3.13-1.17,4.7-1.76-1.35-2.69-3.88-4.63-5.32-7.27.15-.24.52-.11.76.04,1.57.98,3.15,1.97,4.72,2.95.2.12.46,0,.63-.18.17-.17.31-.38.54-.45.37-.11.74.25.79.64.05.38-.12.75-.29,1.1.44.44.88.88,1.31,1.31.22.22.53.45.81.32,1.16-.59,2.47-.87,3.77-.83.59.02,1.31.23,1.4.81.05.34-.15.68-.38.94-.89,1.02-2.2,1.57-3.52,1.91-.32.08-.51.4-.66.69-.24.44-.47.88-.71,1.32-.09.18-.19.36-.19.56s.13.41.33.43c.36.04.65.4.61.76-.04.36-.41.64-.77.6-.41-.05-.67.41-.82.8-.66,1.69-1.59,3.28-2.75,4.68Z"/>
          <path class="cls-1" d="M128.56,54.86c.41.1.82.25,1.2.44.12.06.24.12.35.2.33.22.59.54.95.71.07.03.14.06.19.12.05.06.06.16,0,.2-.84-.34-1.65-.76-2.41-1.25-.11-.07-.26-.06-.38-.09s-.25-.18-.17-.29c.06-.08.19-.07.29-.05Z"/>
          <path class="cls-1" d="M108.16,33.27s.08.01.12.02c-.04.04-.07.08-.11.11-.02-.01-.04-.02-.07-.04-.08.1-.1.23-.11.35-.02.12-.03.25-.11.36-.07.1-.22.16-.33.09-.12-.08-.1-.26-.07-.4.08-.28.2-.54.37-.78.03-.04.05-.08.1-.09.14-.04.16-.23.24-.35.08-.12.22-.18.32-.28.07-.07.13-.16.19-.25.06-.08.15-.16.25-.18s.22.04.24.14c.03.18-.23.27-.26.45l-.09-.09c-.02.09-.03.18-.07.27-.05.12-.13.22-.24.29,0-.04,0-.08,0-.12-.12.16-.24.31-.35.48Z"/>
          <path class="cls-1" d="M119.47,48.95c.13-.1.3-.14.46-.15.39-.03.77.12,1.14.26.1.04.21.08.3.14.13.08.24.19.32.33,0,.06.01.12-.02.18-.03.05-.1.09-.15.07-.59-.28-1.24-.44-1.89-.47-.11,0-.16-.14-.18-.25,0-.03,0-.07.02-.09Z"/>
          <path class="cls-1" d="M114.96,56.73c.1.04.1.16.14.26.05.13.17.23.29.31.37.24.8.41,1.24.47.21.03.46.07.56.26-.17.19-.46.18-.71.13-.36-.07-.71-.19-1.04-.37-.32-.17-.65-.44-.68-.8,0-.07,0-.14.04-.19.04-.06.11-.09.17-.07Z"/>
          <path class="cls-1" d="M124.23,53.27s.08-.03.12-.03c.44-.05.85.19,1.22.42.29.18.58.35.86.53.05.03.11.07.12.13.03.12-.13.21-.25.17s-.2-.14-.31-.21c-.09-.06-.2-.09-.31-.13-.44-.14-.86-.31-1.28-.5-.03-.02-.07,0-.11-.01-.08,0-.16-.08-.17-.16-.02-.08.03-.17.1-.21Z"/>
          <path class="cls-1" d="M104.34,42.9c-.02-.13-.04-.26-.02-.4.02-.11.09-.23.2-.25.11-.02.24.11.17.2-.04.06-.02.14.02.19s.08.11.1.18c.14.59.39,1.14.73,1.64.03.04.06.08.06.12s-.02.1-.06.11c-.02,0-.04,0-.07,0-.19-.05-.41-.13-.49-.32-.02-.04-.03-.09-.08-.1-.05-.01-.12.04-.14,0-.02-.03.02-.06.05-.09s.05-.07.02-.09c-.13-.07-.23-.17-.3-.29-.08-.15-.11-.31-.13-.48-.02-.14-.04-.28-.06-.42Z"/>
          <path class="cls-1" d="M117.98,52.45s.07-.05.11-.07c.18-.08.36-.16.54-.25.04-.02.09-.04.13-.05.2-.06.41-.02.61.03l.35.08c.06.01.13.04.15.1.03.12-.07.25-.19.26-.2.01-.4.03-.6.05-.22.02-.44.06-.67.1-.11.02-.21.04-.3.1-.06.04-.11.1-.18.1-.07,0-.14-.09-.08-.13.1-.07.05-.23.13-.32Z"/>
          <path class="cls-1" d="M113.66,48.84c-.05-.02-.08-.07-.1-.13-.04-.15.03-.32.16-.39.25,0,.51,0,.76,0,.08,0,.15,0,.23.03.18.06.37.09.56.1.07,0,.14,0,.21.03.06.03.1.12.06.18-.03.04-.08.05-.12.06-.55.1-1.11.15-1.66.15-.03,0-.07,0-.1-.01Z"/>
          <path class="cls-1" d="M112.21,29.76c.02.06-.1.09-.11.03.04-.01.07-.02.11-.03h0Z"/>
          <path class="cls-1" d="M106.6,51.62c-.05.02-.08-.06-.08-.12,0-.07,0-.14.01-.22.05.07.08.15.1.24,0,.04,0,.08-.03.1Z"/>
          <path class="cls-1" d="M117.73,29.68s0,.06-.03.05c-.02-.01,0-.06.02-.05h0Z"/>
          <path class="cls-1" d="M126.58,32.9s0,.06-.03.05,0-.06.02-.05h0Z"/>
          <path class="cls-1" d="M108.43,33.02s.04-.04.04-.01c0,.02-.04.04-.05.01h0Z"/>
          <path class="cls-1" d="M141.29,47.99c.06-.02.08.07.07.13-.02.14-.05.29-.09.43-.07.23-.15.45-.25.67-.3.74-.62,1.47-.96,2.2-.08,0-.09-.12-.07-.2.18-.66.45-1.29.72-1.92.18-.41.35-.83.53-1.24,0-.02.02-.05.05-.06Z"/>
          <path class="cls-1" d="M112.2,29.71s.07.01.05.04c-.02.02-.07-.01-.05-.03h0Z"/>
          <path class="cls-1" d="M115.69,54.96c0,.06-.02.12-.06.15-.05.03-.13-.02-.1-.07.04-.08.05-.18.02-.27-.11-.31,0-.66.1-.97.03-.1.09-.22.19-.24.07-.01.12-.08.17-.13.05-.05.14-.1.2-.06.04.03.05.09.04.15-.02.05-.05.09-.08.14-.15.21-.24.46-.32.71-.06.19-.13.39-.16.59Z"/>
          <path class="cls-1" d="M139.36,52.39c-.07,0-.1.1-.13.17-.08.26-.25.48-.41.69-.32.4-.63.81-.95,1.21-.04.05-.12.02-.15-.03-.03-.06,0-.12.01-.18.09-.25.26-.46.42-.66.22-.27.44-.55.65-.82.12-.15.24-.3.38-.42.09-.08.2-.15.24-.26.11.07.07.29-.07.3Z"/>
          <path class="cls-1" d="M122.61,53.99c-.02.06-.04.13-.09.17-.05.04-.14.03-.17-.03.11-.27.16-.56.16-.84,0-.15-.02-.3-.03-.45-.01-.2-.01-.4-.01-.61,0-.18,0-.38.09-.54.12.06.13.22.14.35,0,.34,0,.68.01,1.02,0,.08,0,.15,0,.23,0,.23-.04.47-.09.7Z"/>
        </g>
        <g id="Shape_46-3" data-name="Shape 46">
          <path class="cls-1" d="M28.24,136.12c.05-.11.1-.24.07-.35-.04-.12-.21-.19-.29-.1"/>
          <path class="cls-1" d="M29.05,118.65c3.37,1.91,7,3.39,10.75,4.37.23,0,.14.37-.03.54-1.61,1.59-3.32,3.09-5.02,4.59-.35.31-.71.62-1.12.86-.56.32-1.2.47-1.81.67-1.4.45-2.71,1.16-3.86,2.07,1.5.52,3.11.71,4.69.54.26-.03.4.3.44.56.28,1.56.56,3.13.85,4.69.35.09.61-.32.74-.66.29-.76.56-1.53.81-2.31.27-.83.51-1.69.97-2.43.4-.65.96-1.19,1.5-1.73,1.66-1.63,3.32-3.26,4.99-4.89,2.6,3.28,3.56,7.61,6.04,10.99.39-.05.45-.59.4-.97-.31-2.56-.63-5.12-.94-7.69-.04-.33.28-.58.59-.69.31-.11.66-.17.88-.41.36-.4.12-1.08-.34-1.37-.45-.29-1.02-.29-1.56-.28-.29-.81-.59-1.62-.88-2.43-.15-.4-.26-.93.08-1.2,1.42-1.12,2.55-2.6,3.26-4.27.32-.75.47-1.79-.2-2.25-.4-.27-.94-.21-1.41-.07-1.81.52-3.28,1.86-4.48,3.31-.29.35-.81.41-1.26.43-.69.04-1.39.07-2.08.11-.28.01-.56.03-.82-.09s-.44-.41-.35-.67c.16-.48-.13-1.06-.61-1.21-.48-.16-1.05.14-1.21.62-.17.55-.91.6-1.49.56-2.52-.16-5.07.08-7.52.71Z"/>
          <path class="cls-1" d="M27.91,131.71s-.08-.03-.08,0c0,.04.08.04.08,0h0Z"/>
          <path class="cls-1" d="M29.05,118.67s-.08-.03-.08,0,.08.04.08,0h0Z"/>
        </g>
        <g id="Shape_46-4" data-name="Shape 46">
          <path class="cls-1" d="M154.75,109.15c-.09.06-.19-.05-.24-.14-.18-.33-.36-.68-.39-1.06-.03-.41.1-.9-.19-1.18-.55-.53-1.07-1.11-1.53-1.72-.21-.28-.41-.68-.19-.94.26.04.37.35.49.59.42.88,1.5,1.34,1.8,2.26.06.18.08.37.11.56l.18,1.44c0,.07.01.15-.05.19Z"/>
          <path class="cls-1" d="M157.65,126.79c1,.55,1.89,1.39,2.3,2.46.03.09.06.18.05.28-.02.09-.1.18-.2.16-.12-.02-.16-.17-.19-.28-.15-.58-.65-.98-1.13-1.34-.72-.55-1.53-1.13-2.43-1.06-.11,0-.23.03-.34,0-.11-.03-.21-.12-.21-.24,0-.14.16-.22.29-.26.4-.12.83-.11,1.22,0,.22.07.43.17.63.28Z"/>
          <path class="cls-1" d="M121.64,143.34c.15.19.32.36.51.51.09.07.18.13.24.22.06.09.08.22.02.31-.07.09-.2.11-.3.07-.11-.04-.19-.11-.27-.19-.59-.56-1.15-1.15-1.69-1.77-.36-.66-.61-1.37-.73-2.11-.02-.12-.03-.25.04-.36.07-.1.25-.12.3-.01.18.41.16.89.32,1.31.12.32.35.59.58.86.27.32.54.64.81.96.06.07.12.14.17.21Z"/>
          <path class="cls-1" d="M146.27,146.62c-.18-.06-.2-.29-.17-.47.04-.18.11-.36.22-.51.09-.13.19-.24.28-.36.5-.66.61-1.56,1.13-2.21.03-.04.08-.09.13-.1.08-.01.15.06.17.14.02.08,0,.16-.02.24-.07.27-.15.54-.22.81-.16.6-.33,1.22-.67,1.74-.13.2-.28.39-.45.56-.11.11-.25.22-.4.17Z"/>
          <path class="cls-1" d="M132.74,150.66c.28-.09.59-.07.88-.05.05,0,.09,0,.13.04.04.03.05.09,0,.12.21-.12.46,0,.69.06.26.08.54.1.81.12.45.03.89.06,1.34.1.13,0,.2.17.16.3s-.16.2-.28.25-.25.07-.37.12c-.21.09-.46.06-.69.03-.21-.03-.42-.06-.63-.1-.72-.14-1.41-.41-2.1-.67-.05-.02-.1-.04-.12-.08-.05-.09.07-.18.17-.21Z"/>
          <path class="cls-1" d="M123.5,123.38c-3.77.9-7.66,1.31-11.54,1.22-.22-.06-.24.32-.12.52,1.11,1.98,2.33,3.89,3.55,5.8.25.4.51.8.84,1.13.45.46,1.02.79,1.55,1.15,1.22.82,2.28,1.86,3.13,3.06-1.58.09-3.18-.18-4.65-.78-.24-.1-.46.18-.58.42-.7,1.42-1.41,2.85-2.11,4.27-.36-.02-.49-.48-.52-.84-.07-.81-.11-1.63-.14-2.45-.02-.88-.02-1.76-.26-2.61-.21-.74-.59-1.41-.96-2.08-1.14-2.03-2.29-4.06-3.43-6.08-3.41,2.43-5.53,6.33-8.85,8.88-.36-.16-.27-.69-.11-1.05,1.01-2.37,2.02-4.75,3.04-7.12.13-.3-.11-.63-.38-.83-.27-.19-.59-.35-.73-.64-.23-.48.19-1.07.7-1.22.51-.15,1.06,0,1.57.17.51-.7,1.01-1.39,1.52-2.09.25-.35.51-.83.26-1.18-1.05-1.47-1.73-3.21-1.95-5.01-.1-.81.04-1.85.82-2.1.46-.15.96.06,1.37.32,1.6,1,2.64,2.69,3.39,4.42.18.42.66.61,1.1.76.66.23,1.31.46,1.97.69.26.09.54.18.81.14s.54-.27.53-.54c-.02-.5.42-.98.92-1,.5-.02.97.43.99.93.01.57.71.83,1.27.95,2.47.55,4.85,1.49,7.03,2.77Z"/>
          <path class="cls-1" d="M153.25,115.94c.05-.59.17-1.18.35-1.74.06-.18.12-.35.2-.52.23-.5.61-.93.77-1.46.03-.1.06-.21.13-.29.07-.08.21-.11.28-.03-.28,1.23-.68,2.43-1.2,3.58-.07.17-.02.36-.04.55s-.19.38-.36.3c-.13-.06-.14-.24-.13-.38Z"/>
          <path class="cls-1" d="M127.97,148.62c0-.06,0-.11,0-.17.06.04.12.09.18.13-.01.03-.02.07-.03.1.15.09.34.08.51.08.17,0,.36,0,.51.07.16.08.27.27.19.43-.08.18-.33.2-.53.18-.4-.05-.79-.16-1.15-.33-.06-.03-.11-.06-.14-.11-.09-.18-.35-.17-.53-.25-.18-.08-.29-.26-.45-.38-.12-.09-.25-.14-.38-.21-.13-.07-.25-.17-.3-.3s0-.32.14-.36c.24-.08.42.26.67.26l-.11.15c.13,0,.26,0,.38.04.17.04.33.14.44.27-.05.01-.11.02-.16.03.24.13.48.26.73.38Z"/>
          <path class="cls-1" d="M147.09,129.7c-.16-.16-.26-.38-.31-.61-.12-.53,0-1.09.11-1.62.03-.15.06-.3.12-.44.08-.2.21-.37.38-.51.08-.02.17-.04.25-.02.08.03.15.11.12.19-.26.87-.34,1.8-.23,2.7.02.16-.16.25-.31.31-.04.01-.1.03-.13,0Z"/>
          <path class="cls-1" d="M158.75,134.22c.03-.14.2-.18.33-.25.17-.09.28-.28.36-.46.25-.56.39-1.18.39-1.8,0-.3,0-.65.24-.82.29.19.35.6.33.95-.02.51-.11,1.02-.28,1.5-.17.48-.46.98-.96,1.11-.09.02-.19.03-.27,0-.09-.04-.15-.13-.13-.22Z"/>
          <path class="cls-1" d="M152,122.23s-.06-.11-.07-.16c-.16-.59.08-1.2.31-1.77.18-.43.36-.87.54-1.3.03-.08.07-.16.15-.2.16-.07.32.14.29.31s-.15.31-.22.47c-.06.14-.09.3-.11.45-.1.63-.23,1.25-.41,1.87-.01.05,0,.1,0,.16,0,.12-.07.23-.18.27-.11.04-.24,0-.31-.09Z"/>
          <path class="cls-1" d="M142.03,151.8c-.18.06-.36.11-.54.11-.16,0-.33-.07-.39-.22-.06-.15.1-.35.24-.28.09.04.19,0,.26-.07s.14-.14.23-.17c.78-.31,1.49-.78,2.09-1.36.05-.05.1-.09.16-.11s.14,0,.17.07c.01.03,0,.06,0,.09-.03.28-.09.59-.33.74-.05.03-.12.07-.12.13,0,.07.08.16.02.2-.04.03-.09-.01-.13-.05s-.11-.06-.13,0c-.06.19-.18.36-.34.48-.18.14-.41.21-.63.28-.19.06-.38.12-.56.18Z"/>
          <path class="cls-1" d="M152.22,130.99c-.05-.03-.09-.08-.12-.14-.15-.23-.3-.46-.46-.69-.04-.05-.07-.11-.1-.17-.13-.26-.11-.56-.09-.85l.04-.49c0-.09.02-.19.1-.23.16-.06.36.04.4.21.06.27.13.55.2.82.08.3.17.6.28.89.05.14.11.28.21.39.07.07.16.13.18.22.02.09-.1.21-.16.14-.12-.12-.33-.02-.47-.11Z"/>
          <path class="cls-1" d="M148.18,137.71c-.02.07-.08.13-.15.16-.19.09-.45.03-.58-.14-.05-.35-.11-.7-.16-1.05-.02-.11-.03-.21-.01-.32.05-.26.05-.53.01-.79-.01-.1-.03-.2,0-.29.03-.09.14-.17.23-.12.06.03.08.09.1.15.26.73.45,1.49.56,2.25,0,.04.01.09,0,.13Z"/>
          <path class="cls-1" d="M122.27,143.81c.08-.04.15.11.07.14-.02-.05-.04-.09-.07-.14h0Z"/>
          <path class="cls-1" d="M153.52,146.81c.04.07-.07.13-.15.14-.1.01-.2.02-.3.03.09-.08.19-.14.3-.19.05-.02.12-.03.14.02Z"/>
          <path class="cls-1" d="M120.97,136.24s.08,0,.07.03c-.01.04-.08.01-.07-.02h0Z"/>
          <path class="cls-1" d="M123.49,123.39s.08,0,.07.03-.08.01-.07-.02h0Z"/>
          <path class="cls-1" d="M127.57,148.3s-.06-.04-.03-.06c.03-.01.06.04.03.06h0Z"/>
          <path class="cls-1" d="M141.07,99.91c-.03-.07.08-.12.16-.12.2,0,.4.01.6.04.33.04.65.12.98.19,1.08.26,2.16.54,3.23.84.02.11-.14.15-.26.14-.95-.11-1.88-.35-2.8-.58-.61-.15-1.21-.31-1.82-.46-.03,0-.07-.02-.09-.05Z"/>
          <path class="cls-1" d="M122.2,143.84s0-.09.04-.07c.04.02,0,.09-.04.07h0Z"/>
          <path class="cls-1" d="M156.16,133.61c.08,0,.17,0,.22.06.05.06,0,.19-.07.16-.12-.04-.26-.04-.37.03-.41.22-.9.15-1.35.08-.15-.02-.33-.07-.37-.21-.03-.1-.14-.15-.22-.21-.09-.06-.17-.17-.12-.26.03-.07.12-.1.19-.09.07.01.14.05.21.08.32.17.69.22,1.04.28.28.04.56.09.85.09Z"/>
          <path class="cls-1" d="M147.54,101.62c.03.1.16.12.26.14.37.05.71.24,1.04.42.62.35,1.24.69,1.86,1.04.07.04.05.16-.02.21-.07.05-.16.04-.25.02-.36-.07-.68-.25-1-.43-.42-.24-.85-.48-1.27-.72-.23-.13-.46-.26-.66-.43-.13-.11-.25-.24-.41-.27.08-.17.38-.15.43.03Z"/>
          <path class="cls-1" d="M153.34,124.31c.09,0,.19.02.26.08.07.06.08.19,0,.24-.39-.09-.8-.1-1.19-.03-.21.03-.41.09-.62.14-.28.06-.55.11-.83.15-.25.04-.52.08-.76,0,.06-.18.27-.23.46-.26.47-.08.94-.16,1.4-.24.1-.02.21-.03.31-.05.32-.04.65-.05.98-.02Z"/>
        </g>
        <path class="cls-1" d="M101.47,97.94c-2.52-2.95-5.43-5.56-8.62-7.77-.22-.08,0-.4.21-.49,2.06-.95,4.17-1.78,6.28-2.61.44-.17.88-.35,1.34-.43.64-.11,1.29-.04,1.93-.01,1.47.05,2.94-.17,4.33-.64-1.23-1-2.68-1.72-4.22-2.1-.26-.06-.27-.42-.23-.68.27-1.57.53-3.13.8-4.7-.3-.2-.68.09-.92.37-.53.62-1.05,1.25-1.55,1.9-.53.69-1.06,1.41-1.74,1.96-.6.48-1.3.8-2,1.12-2.12.97-4.23,1.94-6.35,2.91-1.33-3.97-.76-8.37-1.95-12.39-.38-.09-.62.4-.71.78-.58,2.52-1.15,5.03-1.73,7.55-.07.32-.46.45-.79.45-.33,0-.68-.07-.97.09-.47.25-.48.98-.15,1.4.33.42.86.62,1.37.79,0,.86,0,1.72,0,2.58,0,.43-.07.97-.48,1.1-1.72.57-3.29,1.58-4.52,2.91-.56.6-1.05,1.52-.57,2.18.29.39.82.51,1.3.55,1.88.13,3.71-.63,5.34-1.59.4-.23.9-.11,1.34.03.67.2,1.33.4,2,.6.26.08.54.17.74.36s.28.53.11.75c-.31.39-.24,1.04.16,1.35.4.31,1.04.23,1.34-.17.35-.46,1.06-.25,1.59-.02,2.32,1.01,4.8,1.65,7.31,1.89Z"/>
        <path class="cls-1" d="M22.88,140.02c-.16-.15-.07-.42.06-.59.13-.17.3-.32.49-.43.15-.09.32-.16.48-.24.87-.45,1.44-1.35,2.31-1.78.06-.03.13-.06.19-.04.09.03.13.14.11.23-.02.09-.08.17-.14.24-.21.25-.43.5-.64.75-.48.56-.97,1.12-1.59,1.51-.24.15-.5.27-.76.37-.17.06-.38.11-.51-.02Z"/>
        <path class="cls-1" d="M16.25,142.9c-.13-.17,0-.42.16-.57.16-.15.35-.27.56-.34.17-.06.34-.1.52-.15.93-.29,1.65-1.08,2.59-1.35.06-.02.13-.03.19,0,.08.04.11.16.07.25-.04.09-.11.15-.18.21-.25.21-.51.42-.76.63-.57.47-1.15.94-1.83,1.21-.26.1-.53.18-.81.23-.18.03-.39.04-.5-.1Z"/>
        <path class="cls-1" d="M9.25,145.3c-.09-.2.1-.41.28-.52.19-.11.4-.18.62-.21.18-.02.36-.02.54-.03.97-.08,1.85-.68,2.82-.74.07,0,.14,0,.19.04.07.06.07.18.01.25-.05.08-.14.12-.22.16-.29.15-.59.3-.88.44-.66.33-1.33.66-2.05.78-.28.04-.56.06-.84.04-.18,0-.39-.05-.47-.21Z"/>
        <path class="cls-1" d="M110.85,81.55c-.65.25-1.33.43-2.02.54-.22.03-.43.06-.65.06-.65.01-1.3-.16-1.94-.06-.12.02-.25.05-.37.02-.12-.03-.23-.17-.18-.28,1.44-.34,2.92-.54,4.4-.6.22,0,.4-.16.6-.24s.5,0,.51.22c0,.17-.18.27-.34.33Z"/>
        <path class="cls-1" d="M124.1,79.23c-.65.26-1.33.44-2.01.55-.21.03-.43.06-.65.06-.65.02-1.3-.15-1.94-.05-.12.02-.25.05-.37.02-.12-.03-.23-.16-.18-.28,1.44-.35,2.91-.55,4.39-.62.22,0,.39-.17.6-.24s.5,0,.51.22c0,.17-.18.27-.34.33Z"/>
        <path class="cls-1" d="M139.12,76c.65-.26,1.32-.44,2.01-.55.21-.03.43-.06.65-.07.65-.02,1.3.15,1.94.04.12-.02.25-.05.37-.02.12.03.23.16.18.28-1.44.35-2.91.56-4.39.63-.22,0-.39.17-.6.24s-.5,0-.51-.22c0-.17.18-.27.34-.33Z"/>
        <path class="cls-1" d="M129.84,77.53c-.02.07-.1.11-.16.15-.81.43-1.65.77-2.53,1.03-.05.02-.1.03-.16.03-.09,0-.17-.07-.22-.15-.14-.21-.11-.51.06-.69.4-.12.79-.25,1.19-.37.12-.04.24-.07.37-.07.31,0,.62-.03.92-.12.11-.03.23-.07.34-.05"/>
        <path class="cls-1" d="M132.86,77.07c.1.07.23,0,.34-.07.38-.23.82-.32,1.26-.4.82-.15,1.65-.3,2.47-.45.1-.02.17.11.14.2-.03.1-.12.16-.21.2-.38.2-.81.28-1.23.36-.56.1-1.13.2-1.69.3-.3.05-.61.11-.92.1-.2,0-.4-.03-.58.06-.06-.21.23-.42.41-.3Z"/>
        <path class="cls-1" d="M146.5,75.27c.09.09.23.04.35,0,.41-.16.87-.16,1.31-.15.84,0,1.67.01,2.51.02.1,0,.15.14.1.23-.05.09-.15.13-.24.16-.41.13-.85.13-1.28.12-.57,0-1.14-.02-1.72-.02-.31,0-.62,0-.92-.07-.19-.04-.39-.11-.58-.05-.02-.22.31-.37.46-.21Z"/>
        <path class="cls-1" d="M153.74,75.2c.08.1.23.06.34.03.43-.11.88-.06,1.32,0,.83.1,1.66.2,2.49.29.1.01.13.15.08.24-.06.08-.16.12-.26.13-.42.08-.86.03-1.28-.02-.57-.07-1.14-.14-1.7-.21-.31-.04-.61-.08-.91-.18-.19-.06-.38-.15-.57-.12,0-.22.35-.34.48-.16Z"/>
        <path class="cls-1" d="M164.32,74.63c-.02.07-.1.11-.16.15-.81.43-1.65.77-2.53,1.03-.05.02-.1.03-.16.03-.09,0-.17-.07-.22-.15-.14-.21-.11-.51.06-.69.4-.12.79-.25,1.19-.37.12-.04.24-.07.37-.07.31,0,.62-.03.92-.12.11-.03.23-.07.34-.05"/>
        <path class="cls-1" d="M116.33,80.27c-.02.07-.1.11-.16.15-.81.43-1.65.77-2.53,1.03-.05.02-.1.03-.16.03-.09,0-.17-.07-.22-.15-.14-.21-.11-.51.06-.69.4-.12.79-.25,1.19-.37.12-.04.24-.07.37-.07.31,0,.62-.03.92-.12.11-.03.23-.07.34-.05"/>
      </g>
    </g>
  </g>
</svg>